# xmcd
#
# Track frame offsets:
#	150
#	17095
#	30186
#	43132
#	53688
#	65478
#	76861
#	90381
#	107224
#	122870
#
# Disc length: 1948 seconds
#
# Revision: 0
# Processed by: cddbd v1.5.2PL0 Copyright (c) Steve Scherf et al.
# Submitted via: audiograbber 1.83.01
#
DISCID=74079a0a
DTITLE=Michael Nesmith - And The Hits Just Keep On Comin'
DYEAR=1900
DGENRE=Oldies
TTITLE0=Tomorrow and Me
TTITLE1=The Upside Of Good-Bye
TTITLE2=Lady Love
TTITLE3=Listening
TTITLE4=Two Different Roads
TTITLE5=The Candidate
TTITLE6=Different Drum
TTITLE7=Harmony Constant
TTITLE8=Keep On
TTITLE9=Roll With The Flow
EXTD=
EXTT0=
EXTT1=
EXTT2=
EXTT3=
EXTT4=
EXTT5=
EXTT6=
EXTT7=
EXTT8=
EXTT9=
PLAYORDER=
